<?xml version="1.0" encoding="UTF-8"?>
<svg version="1.1" xmlns="http://www.w3.org/2000/svg" width="500" height="500">
<path d="M0 0 C165 0 330 0 500 0 C500 165 500 330 500 500 C335 500 170 500 0 500 C0 335 0 170 0 0 Z " fill="#FEFEFE" transform="translate(0,0)"/>
<path d="M0 0 C2.5869073 1.97661579 3.80979031 3.23545585 4.6015625 6.41796875 C4.70791033 18.98473752 -0.24225961 31.50457134 -7 42 C-9.61487275 41.6513503 -10.71089101 41.35140319 -12.4140625 39.28125 C-13.27434557 35.93188126 -12.05715801 34.46570038 -10.375 31.5 C-6.07242578 23.43636547 -2.83218553 15.1540408 -2 6 C-18.77304691 15.58900292 -28.24855157 30.7448801 -36.4375 47.8125 C-36.8504834 48.67133789 -37.2634668 49.53017578 -37.68896484 50.41503906 C-41.19516215 57.95459427 -44.51261707 65.67195611 -44.1875 74.125 C-44.16042969 75.05570312 -44.13335937 75.98640625 -44.10546875 76.9453125 C-44.07066406 77.62335938 -44.03585937 78.30140625 -44 79 C-40.68812497 80.07490681 -40.01496459 80.0053445 -36.5 78.75 C-21.45745042 70.61130713 -11.76417259 55.07948097 -3 41 C-1.35 41.66 0.3 42.32 2 43 C1.67116504 47.71330113 0.48968049 51.34217849 -1.375 55.6875 C-4.9217439 64.46697621 -5.85401285 73.65508036 -7 83 C-8.32 83 -9.64 83 -11 83 C-13 81 -13 81 -13.1953125 78.1796875 C-13.17210937 77.08914063 -13.14890625 75.99859375 -13.125 74.875 C-13.10695313 73.77929688 -13.08890625 72.68359375 -13.0703125 71.5546875 C-13.04710937 70.71164062 -13.02390625 69.86859375 -13 69 C-13.92619141 69.97839844 -13.92619141 69.97839844 -14.87109375 70.9765625 C-29.41398179 85.98429171 -29.41398179 85.98429171 -38.25 86.375 C-41.72408867 86.34143393 -43.71612051 85.9405425 -46.4375 83.75 C-50.37943658 79.51962904 -51.27917135 76.84571922 -51.25 71.0625 C-51.25773437 69.53302734 -51.25773437 69.53302734 -51.265625 67.97265625 C-50.99523535 64.94667796 -50.27241136 62.74174353 -49 60 C-56.19408226 60.64562277 -62.27578291 62.25760745 -68.6875 65.5 C-69.60523193 65.96321655 -69.60523193 65.96321655 -70.54150391 66.43579102 C-73.86596803 68.08956528 -73.86596803 68.08956528 -76 71 C-75.67 71.66 -75.34 72.32 -75 73 C-74.4968334 76.77374953 -74.56083422 78.41444563 -76.875 81.5 C-82.89082679 86.78302069 -90.33383949 90.7911063 -98 93 C-101.50698662 92.77128348 -102.50840482 92.49159518 -105 90 C-105 84.39540394 -103.30809598 81.50912167 -99.625 77.578125 C-93.88118812 72 -93.88118812 72 -91 72 C-91 71.34 -91 70.68 -91 70 C-91.6084375 69.90203125 -92.216875 69.8040625 -92.84375 69.703125 C-125.52321294 64.12839309 -125.52321294 64.12839309 -135 51 C-136.76380019 47.47239961 -136.51745988 43.85086426 -136 40 C-130.41972766 24.56298493 -113.74757997 15.69627274 -99.84423828 8.85302734 C-95.37043816 6.78373192 -90.73596061 5.33111319 -86 4 C-85.27296875 3.77570313 -84.5459375 3.55140625 -83.796875 3.3203125 C-77.37210003 1.47382206 -71.63470198 1.20958941 -65.25 3.125 C-60.60791964 5.80312328 -57.73271605 8.80185186 -56 14 C-55.07673294 22.30940356 -57.73549733 27.91827406 -62 35 C-62.99 35.99 -62.99 35.99 -64 37 C-66.125 36.625 -66.125 36.625 -68 36 C-68.8125 34 -68.8125 34 -69 31 C-67.90016316 28.81731223 -66.6228007 26.87184235 -65.2265625 24.8671875 C-63.18297435 21.75624758 -62.84239951 19.06730041 -62.8125 15.4375 C-62.79832031 14.65246094 -62.78414063 13.86742187 -62.76953125 13.05859375 C-62.80832491 10.7756455 -62.80832491 10.7756455 -65 9 C-72.04356648 8.34781792 -78.26101141 10.05896962 -85 12 C-85.97195312 12.26683594 -86.94390625 12.53367188 -87.9453125 12.80859375 C-99.58547608 16.30064283 -109.39301115 22.30558807 -118.625 30.0625 C-119.20491699 30.54460937 -119.78483398 31.02671875 -120.38232422 31.5234375 C-124.71421328 35.31272331 -128.35651564 39.48149838 -129.42578125 45.328125 C-129.24348208 48.42092464 -128.98408008 51.04775977 -128 54 C-120.61595744 57.81111874 -111.66756365 59.39212375 -103.6875 61.625 C-102.52214722 61.95238159 -102.52214722 61.95238159 -101.33325195 62.28637695 C-90.40783627 65.58694671 -90.40783627 65.58694671 -79.5703125 63.35546875 C-78.41443634 62.64477117 -77.26611819 61.92165941 -76.125 61.1875 C-66.986477 55.68100045 -59.79923966 53.04006759 -49 54 C-48.34 54.33 -47.68 54.66 -47 55 C-46.90847656 54.34128906 -46.81695312 53.68257812 -46.72265625 53.00390625 C-43.96376472 41.53586524 -36.93237951 30.34421497 -30 21 C-29.30132812 20.05511719 -28.60265625 19.11023438 -27.8828125 18.13671875 C-21.38406879 9.77623529 -11.85730007 -2.43857681 0 0 Z " fill="#0A0A0A" transform="translate(310,191)"/>
<path d="M0 0 C4.29085983 0.87568568 6.18527073 2.33673797 9.0625 5.625 C9.96044841 9.31169877 9.49045349 12.51232092 8.125 16.0625 C4.75419697 18.61613866 1.2272939 19.03345614 -2.9375 18.625 C-6.04090188 16.6616233 -7.52694986 15.31130927 -8.41015625 11.68359375 C-8.70614087 7.68400676 -8.17740844 5.96369428 -5.8125 2.625 C-2.9375 0.625 -2.9375 0.625 0 0 Z " fill="#070707" transform="translate(332.9375,228.375)"/>
<path d="M0 0 C0.99 0 1.98 0 3 0 C3.45375 1.134375 3.9075 2.26875 4.375 3.4375 C5.57095806 7.04721692 5.57095806 7.04721692 8 8 C8.309375 7.05125 8.61875 6.1025 8.9375 5.125 C10 2 10 2 11 0 C11.99 0 12.98 0 14 0 C14 4.95 14 9.9 14 15 C13.34 15 12.68 15 12 15 C11.67 12.03 11.34 9.06 11 6 C10.01 7.98 9.02 9.96 8 12 C5 11 5 11 3.8125 8.9375 C3.544375 8.298125 3.27625 7.65875 3 7 C2.67 9.64 2.34 12.28 2 15 C1.34 15 0.68 15 0 15 C0 10.05 0 5.1 0 0 Z " fill="#373737" transform="translate(333,304)"/>
<path d="M0 0 C4.59195094 1.14798774 4.87820524 1.73528573 7.25 5.5625 C8.03117188 6.80193359 8.03117188 6.80193359 8.828125 8.06640625 C9.21484375 8.70449219 9.6015625 9.34257812 10 10 C10.33 6.7 10.66 3.4 11 0 C11.66 0 12.32 0 13 0 C13 4.95 13 9.9 13 15 C12.01 15 11.02 15 10 15 C8.17578125 12.8125 8.17578125 12.8125 6.3125 10 C5.68988281 9.071875 5.06726563 8.14375 4.42578125 7.1875 C3.95527344 6.465625 3.48476562 5.74375 3 5 C2.67 8.3 2.34 11.6 2 15 C1.34 15 0.68 15 0 15 C0 10.05 0 5.1 0 0 Z " fill="#303030" transform="translate(214,304)"/>
<path d="M0 0 C0.99 0.33 1.98 0.66 3 1 C4.03865096 3.36695387 4.89577096 5.61555495 5.6875 8.0625 C5.91244141 8.72572266 6.13738281 9.38894531 6.36914062 10.07226562 C6.92334719 11.71130207 7.46306085 13.35522593 8 15 C7.01 15 6.02 15 5 15 C4.67 14.01 4.34 13.02 4 12 C1.69 11.67 -0.62 11.34 -3 11 C-3.33 12.32 -3.66 13.64 -4 15 C-4.66 15 -5.32 15 -6 15 C-4.36041242 9.76727367 -2.61047965 4.84803364 0 0 Z " fill="#202020" transform="translate(323,304)"/>
<path d="M0 0 C0.99 0 1.98 0 3 0 C3.83986084 1.93467942 4.67168027 3.87285129 5.5 5.8125 C5.9640625 6.89144531 6.428125 7.97039062 6.90625 9.08203125 C8 12 8 12 8 15 C7.34 15 6.68 15 6 15 C5.67 13.68 5.34 12.36 5 11 C2.69 11.33 0.38 11.66 -2 12 C-2.33 12.99 -2.66 13.98 -3 15 C-3.66 15 -4.32 15 -5 15 C-4.43174347 9.45949887 -2.37113483 4.96284034 0 0 Z " fill="#282828" transform="translate(204,304)"/>
<path d="M0 0 C0.99 0 1.98 0 3 0 C3.83986084 1.93467942 4.67168027 3.87285129 5.5 5.8125 C5.9640625 6.89144531 6.428125 7.97039062 6.90625 9.08203125 C8 12 8 12 8 15 C7.34 15 6.68 15 6 15 C5.67 14.01 5.34 13.02 5 12 C2.69 11.67 0.38 11.34 -2 11 C-2.33 12.32 -2.66 13.64 -3 15 C-3.66 15 -4.32 15 -5 15 C-1.92482916 4.44191344 -1.92482916 4.44191344 0 0 Z " fill="#242424" transform="translate(280,304)"/>
<path d="M0 0 C0 0.66 0 1.32 0 2 C-2.05078125 2.22786458 -4.1015625 2.45572917 -6.15234375 2.68359375 C-8.01140229 2.81886614 -8.01140229 2.81886614 -9 4 C-9.04092937 6.33297433 -9.04241723 8.66705225 -9 11 C-6.69 11.66 -4.38 12.32 -2 13 C-2 11.68 -2 10.36 -2 9 C-3.32 9 -4.64 9 -6 9 C-6 8.34 -6 7.68 -6 7 C-4.02 7 -2.04 7 0 7 C0 9.64 0 12.28 0 15 C-8.18462594 15.61770762 -8.18462594 15.61770762 -11.0625 13.4375 C-12.6595532 9.28516168 -12.6595532 5.71483832 -11.0625 1.5625 C-7.71893043 -0.97050725 -4.04720363 -0.30544933 0 0 Z " fill="#212121" transform="translate(273,304)"/>
<path d="M0 0 C0.66 0 1.32 0 2 0 C2 1.98 2 3.96 2 6 C4.64 6 7.28 6 10 6 C10 4.02 10 2.04 10 0 C10.66 0 11.32 0 12 0 C12 4.95 12 9.9 12 15 C11.34 15 10.68 15 10 15 C10 12.69 10 10.38 10 8 C7.36 8 4.72 8 2 8 C2 10.31 2 12.62 2 15 C1.34 15 0.68 15 0 15 C0 10.05 0 5.1 0 0 Z " fill="#191919" transform="translate(242,304)"/>
<path d="M0 0 C0.66 0 1.32 0 2 0 C2 1.98 2 3.96 2 6 C4.64 6 7.28 6 10 6 C10 4.02 10 2.04 10 0 C10.66 0 11.32 0 12 0 C12 4.95 12 9.9 12 15 C11.34 15 10.68 15 10 15 C10 12.69 10 10.38 10 8 C7.36 8 4.72 8 2 8 C2 10.31 2 12.62 2 15 C1.34 15 0.68 15 0 15 C0 10.05 0 5.1 0 0 Z " fill="#191919" transform="translate(165,304)"/>
<path d="M0 0 C1.134375 0.020625 2.26875 0.04125 3.4375 0.0625 C3.4375 0.7225 3.4375 1.3825 3.4375 2.0625 C1.4575 2.3925 -0.5225 2.7225 -2.5625 3.0625 C-2.5625 3.7225 -2.5625 4.3825 -2.5625 5.0625 C-1.428125 5.454375 -0.29375 5.84625 0.875 6.25 C4.4375 8.0625 4.4375 8.0625 5.5 10.625 C5.4375 13.0625 5.4375 13.0625 3.4375 15.0625 C1.2734375 15.2578125 1.2734375 15.2578125 -1.1875 15.1875 C-2.00476563 15.16945313 -2.82203125 15.15140625 -3.6640625 15.1328125 C-4.29054687 15.10960937 -4.91703125 15.08640625 -5.5625 15.0625 C-5.5625 14.4025 -5.5625 13.7425 -5.5625 13.0625 C-2.9225 13.0625 -0.2825 13.0625 2.4375 13.0625 C2.4375 11.7425 2.4375 10.4225 2.4375 9.0625 C1.48875 8.93875 0.54 8.815 -0.4375 8.6875 C-3.5625 8.0625 -3.5625 8.0625 -5.5625 6.0625 C-4.83351201 0.08479846 -4.83351201 0.08479846 0 0 Z " fill="#2E2E2E" transform="translate(157.5625,303.9375)"/>
<path d="M0 0 C0.66 0 1.32 0 2 0 C2.33 4.29 2.66 8.58 3 13 C4.98 12.67 6.96 12.34 9 12 C9.33 8.04 9.66 4.08 10 0 C10.66 0 11.32 0 12 0 C12.05386629 2.12472576 12.09273071 4.24983652 12.125 6.375 C12.14820313 7.55835938 12.17140625 8.74171875 12.1953125 9.9609375 C12 13 12 13 10 15 C3.84509372 15.55953693 3.84509372 15.55953693 1.2890625 13.8671875 C-0.57849901 11.16205295 -0.29219531 9.05805457 -0.1875 5.8125 C-0.16042969 4.72582031 -0.13335937 3.63914062 -0.10546875 2.51953125 C-0.07066406 1.68808594 -0.03585937 0.85664063 0 0 Z " fill="#242424" transform="translate(290,304)"/>
<path d="M0 0 C2.05078125 0.03255208 4.1015625 0.06510417 6.15234375 0.09765625 C6.15234375 0.75765625 6.15234375 1.41765625 6.15234375 2.09765625 C3.84234375 2.09765625 1.53234375 2.09765625 -0.84765625 2.09765625 C-0.84765625 3.41765625 -0.84765625 4.73765625 -0.84765625 6.09765625 C0.57546875 6.31421875 0.57546875 6.31421875 2.02734375 6.53515625 C5.15234375 7.09765625 5.15234375 7.09765625 7.15234375 8.09765625 C7.27734375 10.47265625 7.27734375 10.47265625 7.15234375 13.09765625 C5.15234375 15.09765625 5.15234375 15.09765625 3.20703125 15.29296875 C1.18880208 15.22786458 -0.82942708 15.16276042 -2.84765625 15.09765625 C-2.84765625 14.43765625 -2.84765625 13.77765625 -2.84765625 13.09765625 C0.61734375 12.60265625 0.61734375 12.60265625 4.15234375 12.09765625 C4.48234375 11.10765625 4.81234375 10.11765625 5.15234375 9.09765625 C4.01796875 8.95328125 2.88359375 8.80890625 1.71484375 8.66015625 C-1.84765625 8.09765625 -1.84765625 8.09765625 -2.84765625 7.09765625 C-2.97265625 4.09765625 -2.97265625 4.09765625 -2.84765625 1.09765625 C-1.84765625 0.09765625 -1.84765625 0.09765625 0 0 Z " fill="#2F2F2F" transform="translate(232.84765625,303.90234375)"/>
<path d="M0 0 C0.66 0 1.32 0 2 0 C3.32 3.3 4.64 6.6 6 10 C7.65 6.7 9.3 3.4 11 0 C11.66 0.33 12.32 0.66 13 1 C11.35 5.62 9.7 10.24 8 15 C6.68 14.67 5.36 14.34 4 14 C2.734375 11.6015625 2.734375 11.6015625 1.75 8.625 C1.41484375 7.64789063 1.0796875 6.67078125 0.734375 5.6640625 C0 3 0 3 0 0 Z " fill="#242424" transform="translate(185,304)"/>
<path d="M0 0 C3.96 0 7.92 0 12 0 C12 0.66 12 1.32 12 2 C10.35 2 8.7 2 7 2 C7 6.29 7 10.58 7 15 C6.34 15 5.68 15 5 15 C5 10.71 5 6.42 5 2 C3.35 2 1.7 2 0 2 C0 1.34 0 0.68 0 0 Z " fill="#272727" transform="translate(304,304)"/>
<path d="M0 0 C0.99 0 1.98 0 3 0 C3 4.95 3 9.9 3 15 C2.01 15 1.02 15 0 15 C0 10.05 0 5.1 0 0 Z " fill="#545454" transform="translate(180,304)"/>
<path d="M0 0 C0.99 0 1.98 0 3 0 C3 4.95 3 9.9 3 15 C2.34 15 1.68 15 1 15 C0.67 12.03 0.34 9.06 0 6 C-0.99 6.495 -0.99 6.495 -2 7 C-1.125 2.25 -1.125 2.25 0 0 Z " fill="#111111" transform="translate(344,304)"/>
<path d="M0 0 C0.66 0 1.32 0 2 0 C2 4.95 2 9.9 2 15 C1.34 15 0.68 15 0 15 C0 12.36 0 9.72 0 7 C-2.64 7 -5.28 7 -8 7 C-8 6.67 -8 6.34 -8 6 C-5.36 6 -2.72 6 0 6 C0 4.02 0 2.04 0 0 Z " fill="#252525" transform="translate(252,304)"/>
<path d="M0 0 C0.66 0 1.32 0 2 0 C2 4.95 2 9.9 2 15 C1.34 15 0.68 15 0 15 C0 12.36 0 9.72 0 7 C-2.64 7 -5.28 7 -8 7 C-8 6.67 -8 6.34 -8 6 C-5.36 6 -2.72 6 0 6 C0 4.02 0 2.04 0 0 Z " fill="#252525" transform="translate(175,304)"/>
<path d="M0 0 C0.33 1.32 0.66 2.64 1 4 C4.465 3.505 4.465 3.505 8 3 C10 6 10 6 10 9 C9.34 9 8.68 9 8 9 C7.67 7.68 7.34 6.36 7 5 C4.69 5.33 2.38 5.66 0 6 C-0.33 6.99 -0.66 7.98 -1 9 C-1.66 9 -2.32 9 -3 9 C-2.5020163 5.26512223 -2.12508244 3.18762365 0 0 Z " fill="#1B1B1B" transform="translate(202,310)"/>
<path d="M0 0 C0.33 0.99 0.66 1.98 1 3 C3.64 2.67 6.28 2.34 9 2 C9.33 3.98 9.66 5.96 10 8 C9.34 8 8.68 8 8 8 C7.67 7.01 7.34 6.02 7 5 C4.69 4.67 2.38 4.34 0 4 C-0.33 5.32 -0.66 6.64 -1 8 C-1.66 8 -2.32 8 -3 8 C-1.125 1.125 -1.125 1.125 0 0 Z " fill="#161616" transform="translate(278,311)"/>
<path d="M0 0 C0 0.66 0 1.32 0 2 C-2.265625 3.91015625 -2.265625 3.91015625 -5.25 6.0625 C-6.22453125 6.77535156 -7.1990625 7.48820312 -8.203125 8.22265625 C-10.61312787 9.75415249 -12.22128943 10.56996146 -15 11 C-4.64705882 0 -4.64705882 0 0 0 Z " fill="#D5D5D5" transform="translate(230,264)"/>
<path d="M0 0 C0.66 0 1.32 0 2 0 C2 4.95 2 9.9 2 15 C1.01 15 0.02 15 -1 15 C-0.67 10.05 -0.34 5.1 0 0 Z " fill="#1C1C1C" transform="translate(225,304)"/>
<path d="M0 0 C0.99 0 1.98 0 3 0 C3.125 2.375 3.125 2.375 3 5 C1 7 1 7 -0.9453125 7.1953125 C-2.96354167 7.13020833 -4.98177083 7.06510417 -7 7 C-7 6.34 -7 5.68 -7 5 C-3.535 4.505 -3.535 4.505 0 4 C0 2.68 0 1.36 0 0 Z " fill="#1F1F1F" transform="translate(237,312)"/>
<path d="M0 0 C0.66 0 1.32 0 2 0 C2.06058594 0.75925781 2.12117188 1.51851563 2.18359375 2.30078125 C2.26738281 3.29464844 2.35117187 4.28851563 2.4375 5.3125 C2.55931641 6.79169922 2.55931641 6.79169922 2.68359375 8.30078125 C2.91812559 11.09375599 2.91812559 11.09375599 4 14 C2.68 13.34 1.36 12.68 0 12 C0 8.04 0 4.08 0 0 Z " fill="#2A2A2A" transform="translate(290,304)"/>
<path d="M0 0 C3 3.625 3 3.625 3 7 C1.35 7 -0.3 7 -2 7 C-1.125 1.125 -1.125 1.125 0 0 Z " fill="#D0D0D0" transform="translate(205,307)"/>
<path d="M0 0 C0.66 0.33 1.32 0.66 2 1 C2.625 4.0625 2.625 4.0625 3 7 C1.35 7 -0.3 7 -2 7 C-1.34 4.69 -0.68 2.38 0 0 Z " fill="#D4D4D4" transform="translate(281,307)"/>
<path d="M0 0 C2.1640625 -0.29296875 2.1640625 -0.29296875 4.625 -0.1875 C5.44226563 -0.16042969 6.25953125 -0.13335937 7.1015625 -0.10546875 C8.04128906 -0.05326172 8.04128906 -0.05326172 9 0 C9 0.66 9 1.32 9 2 C1.375 3 1.375 3 -2 3 C-1.34 2.01 -0.68 1.02 0 0 Z " fill="#373737" transform="translate(264,304)"/>
<path d="M0 0 C0.66 0 1.32 0 2 0 C2.33 1.98 2.66 3.96 3 6 C1.35 6 -0.3 6 -2 6 C-1.34 4.02 -0.68 2.04 0 0 Z " fill="#D2D2D2" transform="translate(323,308)"/>
<path d="M0 0 C0.99 0.33 1.98 0.66 3 1 C3.6875 3.0625 3.6875 3.0625 4 5 C3.01 5.495 3.01 5.495 2 6 C2 5.34 2 4.68 2 4 C1.34 4 0.68 4 0 4 C-0.33 4.66 -0.66 5.32 -1 6 C-1.33 5.01 -1.66 4.02 -2 3 C-1.34 2.01 -0.68 1.02 0 0 Z " fill="#333333" transform="translate(323,304)"/>
<path d="M0 0 C0.99 0 1.98 0 3 0 C2.84660156 0.54140625 2.69320313 1.0828125 2.53515625 1.640625 C1.92128392 4.34704023 1.66791243 6.9850509 1.4375 9.75 C1.35371094 10.73484375 1.26992188 11.7196875 1.18359375 12.734375 C1.12300781 13.48203125 1.06242187 14.2296875 1 15 C0.67 15 0.34 15 0 15 C0 10.05 0 5.1 0 0 Z " fill="#060606" transform="translate(333,304)"/>
</svg>
